<svg xmlns="http://www.w3.org/2000/svg" xmlns:xlink="http://www.w3.org/1999/xlink" x="0px" y="0px" viewBox="0 0 100 100" enable-background="new 0 0 0 0" preserveAspectRatio="xMidYMid"><style type="text/css"> .ldio-i8k16o01gv-st0{opacity:0.8;fill:none;stroke-width:0.4811;stroke-miterlimit:10;}.ldio-i8k16o01gv-st2{opacity:0.8;}.ldio-i8k16o01gv-st3{fill:none;stroke-width:0.5;stroke-miterlimit:10;}.ldio-i8k16o01gv-st4{fill:none;stroke-width:0.4694;stroke-miterlimit:10;}</style><g> <path fill="#2accfc" d="M48.3 56.8l-4.4 1.5c-0.9-1.3-1.5-2.7-1.7-4.3l-1.9 0.3c0.5 2.6 1.7 5 3.6 6.9c1.9 1.9 4.3 3.1 6.9 3.6 l0.3-1.9c-1.6-0.3-3-0.9-4.3-1.7L48.3 56.8z"></path> <path fill="#2accfc" d="M57.8 47.2l4.4-1.5c0.9 1.3 1.5 2.7 1.7 4.3l1.9-0.3c-0.5-2.6-1.7-5-3.6-6.9c-1.9-1.9-4.3-3.1-6.9-3.6L55 41.1 c1.6 0.3 3 0.9 4.3 1.7L57.8 47.2z"></path> <path fill="#2accfc" d="M62.2 58.2l-4.4-1.5l1.5 4.4C58 62 56.5 62.6 55 62.9l0.3 1.9c2.6-0.5 5-1.7 6.9-3.6c1.9-1.9 3.1-4.3 3.6-6.9 L64 53.9C63.7 55.5 63.1 56.9 62.2 58.2z"></path> <path fill="#2accfc" d="M43.9 42.8c-1.9 1.9-3.1 4.3-3.6 6.9l1.9 0.3c0.3-1.6 0.9-3 1.7-4.3l4.4 1.5l-1.5-4.4c1.3-0.9 2.7-1.5 4.3-1.7 l-0.3-1.9C48.2 39.7 45.8 40.9 43.9 42.8z"></path> <animateTransform attributeName="transform" type="rotate" repeatCount="indefinite" dur="4s" keyTimes="0;1" values="0 53.064 52;360 53.064 52"></animateTransform></g><g class="ldio-i8k16o01gv-st2"> <path fill="#2accfc" d="M36 61.9c-1.7-3-2.7-6.4-2.7-9.9c0-10.9 8.8-19.7 19.7-19.7v1c-10.3 0-18.8 8.4-18.8 18.8 c0 3.3 0.9 6.5 2.5 9.4L36 61.9z"></path> <animateTransform attributeName="transform" type="rotate" repeatCount="indefinite" dur="2s" keyTimes="0;1" values="360 53.064 52;0 53.064 52"></animateTransform></g><g class="ldio-i8k16o01gv-st2"> <path fill="#2accfc" d="M57 75.3l-0.5-3c9.9-1.7 17.2-10.2 17.2-20.3c0-11.4-9.2-20.6-20.6-20.6S32.5 40.6 32.5 52 c0 1.6 0.2 3.2 0.5 4.7l-3 0.7c-0.4-1.8-0.6-3.6-0.6-5.4c0-13.1 10.6-23.7 23.7-23.7S76.7 38.9 76.7 52 C76.7 63.6 68.4 73.4 57 75.3z"></path> <animateTransform attributeName="transform" type="rotate" repeatCount="indefinite" dur="1.332s" keyTimes="0;1" values="0 53.064 52;360 53.064 52"></animateTransform></g><g> <path fill="#2accfc" d="M90.5 45.4c-1.5-8.8-6.2-16.8-13-22.5l0 0c-3.4-2.9-7.3-5.1-11.4-6.6s-8.5-2.3-13-2.3v2.4v1.4v2.4 c3.7 0 7.4 0.6 10.9 1.9l0.8-2.3c0 0 0 0 0 0c3.7 1.4 7.2 3.4 10.3 5.9l1.2-1.5L75 25.8c0 0 0 0 0 0l-1.5 1.8 c5.7 4.8 9.6 11.5 10.9 18.8l3.8-0.7c0 0 0 0 0 0L90.5 45.4z"></path> <path fill="#2accfc" d="M29.7 22l4.7 6.1c3.5-2.8 7.5-4.6 11.9-5.6l-1.7-7.5C39.2 16.2 34.2 18.5 29.7 22z"></path> <animateTransform attributeName="transform" type="rotate" repeatCount="indefinite" dur="2s" keyTimes="0;1" values="360 53.064 52;0 53.064 52"></animateTransform></g><g class="ldio-i8k16o01gv-st2"> <path fill="#2accfc" d="M53.1 92.4v-1c21.8 0 39.5-17.7 39.5-39.5c0-21.8-17.7-39.5-39.5-39.5c-15.8 0-30 9.4-36.2 23.8L15.9 36 c6.4-14.8 21-24.4 37.1-24.4c22.3 0 40.4 18.1 40.4 40.4C93.5 74.3 75.3 92.4 53.1 92.4z"></path> <animateTransform attributeName="transform" type="rotate" repeatCount="indefinite" dur="1.332s" keyTimes="0;1" values="0 53.064 52;360 53.064 52"></animateTransform></g><g> <path fill="#2accfc" d="M39.7 28.5l0.6 1c3.9-2.2 8.3-3.4 12.8-3.4V25C48.4 25 43.7 26.2 39.7 28.5z"></path> <path fill="#2accfc" d="M28.6 60.6l-1.1 0.4C31.3 71.8 41.6 79 53.1 79v-1.2C42.1 77.9 32.3 70.9 28.6 60.6z"></path> <animateTransform attributeName="transform" type="rotate" repeatCount="indefinite" dur="4s" keyTimes="0;1" values="360 53.064 52;0 53.064 52"></animateTransform></g><g><circle cx="87" cy="12" r="4" fill="#7afd69" ></circle> <animate attributeName="opacity" repeatCount="indefinite" dur="0.5s" keyTimes="0;0.4;0.5;0.9;1" values="0;0;1;1;0"></animate></g><g> <polyline stroke="#39ff39" class="ldio-i8k16o01gv-st3" points="35.5 77.5 27.5 89.5 24 89.5"></polyline> <rect stroke="#39ff39" x="7" y="86" class="ldio-i8k16o01gv-st4" width="17" height="7"></rect></g><g> <polyline stroke="#39ff39" class="ldio-i8k16o01gv-st4" points="59 22 69 12 82 12"></polyline> <circle stroke="#39ff39" class="ldio-i8k16o01gv-st4" cx="87" cy="12" r="5"></circle></g><g transform="translate(43,42)"><path id="wifi3" fill="lightblue" fill-opacity="0.5" d="M9.9,5C6.8,5,4,6.4,2.2,8.7l1.1,1.1c1.6-2,4-3.2,6.7-3.2c2.7,0,5.1,1.3,6.7,3.2l1.1-1.1C15.8,6.4,13,5,9.9,5z"><animate id="four" attributeName="fill-opacity" dur="100ms" values="0.5;1;0.5" calcMode="linear" begin="three.end+0.01s"></animate></path><path id="wifi2" fill="lightblue" fill-opacity="0.5" d="M9.9,8c-2.3,0-4.3,1.1-5.6,2.8l1.1,1.1c1-1.4,2.6-2.4,4.5-2.4c1.9,0,3.5,0.9,4.5,2.4l1.1-1.1C14.2,9.1,12.2,8,9.9,8z"><animate id="three" attributeName="fill-opacity" dur="100ms" values="0.5;1;0.5" calcMode="linear" begin="two.end+0.01s"></animate></path><path id="wifi1" fill="lightblue" fill-opacity="0.5" d="M9.9,11c-1.5,0-2.7,0.8-3.4,2l1.1,1.1c0.4-0.9,1.3-1.6,2.3-1.6s2,0.7,2.3,1.6l1.1-1.1C12.6,11.8,11.4,11,9.9,11z"><animate id="two" attributeName="fill-opacity" dur="100ms" values="0.5;1;0.5" calcMode="linear" begin="one.end+0.01s"></animate></path><circle id="dot" fill="lightblue" fill-opacity="0.5" cx="9.9" cy="15.3" r="1"><animate id="one" attributeName="fill-opacity" dur="100ms" values="0.5;1;0.5" calcMode="linear" begin="0s;four.end+0.01s"></animate></circle></g></svg>